{"scene":0,"asset":{"generator":"ImageToStl.com","version":"2.0"},"scenes":[{"name":"Scene","nodes":[0]}],"nodes":[{"name":"Node0","children":[1]},{"name":"Node1","mesh":0}],"materials":[{"name":"x1","pbrMetallicRoughness":{"baseColorFactor":[0.85,0.85,0.85,1.0],"metallicFactor":0.05,"roughnessFactor":0.5},"doubleSided":true}],"meshes":[{"name":"Mesh0","primitives":[{"indices":1,"material":0,"attributes":{"POSITION":0}}]}],"accessors":[{"bufferView":0,"componentType":5126,"count":1385,"type":"VEC3","min":[-291.732,-118.11,-3998.43],"max":[4243.41,4094.88,0.0]},{"bufferView":1,"componentType":5123,"count":4665,"type":"SCALAR"}],"bufferViews":[{"target":34962,"buffer":0,"byteLength":16620,"byteOffset":0},{"target":34963,"buffer":0,"byteLength":9330,"byteOffset":16620}],"buffers":[{"byteLength":25952,"uri":"data:application/octet-stream;base64,"}]}